<svg width="25" height="25" viewBox="0 0 25 25" fill="none" xmlns="http://www.w3.org/2000/svg">
<path d="M21.7626 12.6116C21.7626 12.91 21.6441 13.1961 21.4331 13.4071C21.2221 13.6181 20.936 13.7366 20.6376 13.7366H6.85636L11.6864 18.5657C11.8977 18.777 12.0164 19.0637 12.0164 19.3625C12.0164 19.6614 11.8977 19.9481 11.6864 20.1594C11.475 20.3708 11.1884 20.4895 10.8895 20.4895C10.5906 20.4895 10.3039 20.3708 10.0926 20.1594L3.34261 13.4094C3.23773 13.3049 3.15451 13.1807 3.09773 13.044C3.04095 12.9072 3.01172 12.7606 3.01172 12.6125C3.01172 12.4645 3.04095 12.3179 3.09773 12.1811C3.15451 12.0444 3.23773 11.9202 3.34261 11.8157L10.0926 5.06567C10.1973 4.96102 10.3215 4.87801 10.4582 4.82138C10.5949 4.76474 10.7415 4.7356 10.8895 4.7356C11.0375 4.7356 11.184 4.76474 11.3207 4.82138C11.4575 4.87801 11.5817 4.96102 11.6864 5.06567C11.791 5.17032 11.874 5.29455 11.9306 5.43128C11.9873 5.56801 12.0164 5.71455 12.0164 5.86255C12.0164 6.01054 11.9873 6.15708 11.9306 6.29381C11.874 6.43054 11.791 6.55478 11.6864 6.65942L6.85636 11.4866H20.6376C20.936 11.4866 21.2221 11.6051 21.4331 11.8161C21.6441 12.0271 21.7626 12.3132 21.7626 12.6116Z" fill="black"/>
</svg>
