<svg width="512" height="512" viewBox="0 0 512 512" fill="none" xmlns="http://www.w3.org/2000/svg">
<g clip-path="url(#clip0_613_20318)">
<mask id="mask0_613_20318" style="mask-type:alpha" maskUnits="userSpaceOnUse" x="0" y="0" width="512" height="512">
<circle cx="256" cy="256" r="256" fill="#E86C00"/>
</mask>
<g mask="url(#mask0_613_20318)">
<rect width="512" height="171" fill="#C00000"/>
<rect y="171" width="512" height="170" fill="white"/>
<rect y="341" width="512" height="171" fill="#0700C9"/>
</g>
<g clip-path="url(#clip1_613_20318)">
<path d="M150.289 138.788L254.352 94.5181L401.536 178.459L150.289 244.576V138.788Z" fill="white"/>
<path d="M313.57 385.435L337.143 269.873L372.214 371.062L355.541 398.084L313.57 385.435Z" fill="white"/>
<path d="M255.504 67.7209C258.931 67.721 262.305 68.5636 265.329 70.1741L265.334 70.176L473.926 181.425L474.546 181.77C477.616 183.543 480.19 186.069 482.019 189.115C483.969 192.365 484.999 196.085 484.999 199.875C484.999 203.665 483.969 207.384 482.019 210.634C480.068 213.883 477.271 216.54 473.927 218.323L473.928 218.323L429.379 242.089V322.044L429.371 322.845C429.197 331.118 426.068 339.066 420.535 345.242L420.512 345.268C406.885 360.331 391.131 373.31 373.754 383.799V450.188C373.754 455.732 371.55 461.049 367.63 464.97C363.709 468.891 358.392 471.094 352.848 471.094C347.303 471.094 341.985 468.891 338.064 464.97C334.144 461.049 331.942 455.732 331.941 450.188V403.219C307.346 411.528 281.511 415.677 255.504 415.468V415.469C166.892 415.469 114.117 371.577 90.4775 345.248L90.4727 345.242C84.7611 338.867 81.6109 330.604 81.6289 322.044V242.089L37.0791 218.323V218.323C33.7356 216.54 30.9393 213.883 28.9893 210.634C27.0387 207.384 26.0079 203.665 26.0078 199.875C26.0078 196.085 27.0387 192.365 28.9893 189.115C30.9398 185.866 33.7373 183.208 37.082 181.425L245.674 70.176L245.678 70.1741C248.702 68.5635 252.077 67.7209 255.504 67.7209ZM91.3604 199.862L112.476 211.075L112.482 211.079L112.488 211.082L255.504 287.424L315.374 255.499L245.673 218.323L245.622 218.296L245.571 218.268C240.777 215.608 237.219 211.172 235.665 205.914C234.111 200.657 234.685 194.999 237.262 190.159C239.839 185.321 244.213 181.688 249.443 180.043C254.51 178.45 259.987 178.847 264.764 181.141L265.224 181.368L265.279 181.397L265.334 181.426L359.796 231.812L398.492 211.087L400.041 210.258H400.153L419.662 199.869L255.504 112.323L91.3604 199.862ZM345.941 382.666C350.633 380.53 355.24 378.213 359.754 375.72V251.796C359.754 250.584 359.434 249.392 358.828 248.342C358.807 248.306 358.783 248.271 358.762 248.236L345.121 255.505L345.941 255.944V382.666Z" fill="black" stroke="white" stroke-width="14"/>
</g>
</g>
<defs>
<clipPath id="clip0_613_20318">
<rect width="512" height="512" fill="white"/>
</clipPath>
<clipPath id="clip1_613_20318">
<rect width="445" height="445" fill="white" transform="translate(33 33)"/>
</clipPath>
</defs>
</svg>
