<svg width="512" height="512" viewBox="0 0 512 512" fill="none" xmlns="http://www.w3.org/2000/svg">
<g clip-path="url(#clip0_613_20318)">
<mask id="mask0_613_20318" style="mask-type:alpha" maskUnits="userSpaceOnUse" x="0" y="0" width="512" height="512">
<circle cx="256" cy="256" r="256" fill="#E86C00"/>
</mask>
<g mask="url(#mask0_613_20318)">
<rect width="512" height="171" fill="#C00000"/>
<rect y="171" width="512" height="170" fill="white"/>
<rect y="341" width="512" height="171" fill="#0700C9"/>
</g>
<path d="M164 154L254.5 115.5L382.5 188.5L164 246V154Z" fill="white"/>
<path d="M306 368.5L326.5 268L357 356L342.5 379.5L306 368.5Z" fill="white"/>
<path d="M328.059 375.289C336.401 372.002 344.486 368.095 352.246 363.603V424.812C352.246 428.02 350.972 431.096 348.704 433.364C346.436 435.632 343.36 436.906 340.152 436.906C336.945 436.906 333.869 435.632 331.601 433.364C329.333 431.096 328.059 428.02 328.059 424.812V375.289ZM345.837 241.607L261.18 196.452C258.356 195.01 255.078 194.734 252.052 195.685C249.027 196.637 246.496 198.738 245.005 201.537C243.514 204.337 243.182 207.61 244.082 210.651C244.981 213.693 247.039 216.259 249.812 217.798L320.5 255.5L346.199 241.804L345.837 241.607ZM442.587 196.452L261.18 99.7022C259.431 98.7705 257.479 98.2832 255.496 98.2832C253.514 98.2832 251.562 98.7705 249.812 99.7022L68.4059 196.452C66.471 197.483 64.8528 199.021 63.7244 200.901C62.5961 202.781 62 204.932 62 207.125C62 209.318 62.5961 211.469 63.7244 213.349C64.8528 215.229 66.471 216.766 68.4059 217.798L110.371 240.186V313.384C110.359 319.324 112.545 325.059 116.509 329.483C136.312 351.539 180.681 388.531 255.496 388.531C280.303 388.736 304.924 384.243 328.059 375.289V259.536L320.5 255.5L255.496 290.164L128.255 222.242L99.7892 207.125L255.496 124.086L411.203 207.125L382.813 222.242H382.722L346.199 241.804C348.038 242.865 349.565 244.393 350.627 246.232C351.688 248.071 352.247 250.157 352.246 252.28V363.603C368.017 354.499 382.268 342.987 394.484 329.483C398.448 325.059 400.634 319.324 400.621 313.384V240.186L442.587 217.798C444.521 216.766 446.14 215.229 447.268 213.349C448.396 211.469 448.992 209.318 448.992 207.125C448.992 204.932 448.396 202.781 447.268 200.901C446.14 199.021 444.521 197.483 442.587 196.452Z" fill="black"/>
</g>
<defs>
<clipPath id="clip0_613_20318">
<rect width="512" height="512" fill="white"/>
</clipPath>
</defs>
</svg>
