<svg width="25" height="24" viewBox="0 0 25 24" fill="none" xmlns="http://www.w3.org/2000/svg">
<path d="M4.66157 4.39233C4.53911 4.49847 4.44103 4.62983 4.37404 4.7774C4.30706 4.92497 4.27274 5.08527 4.27345 5.24733V20.9973C4.27345 21.2957 4.39197 21.5818 4.60295 21.7928C4.81393 22.0038 5.10008 22.1223 5.39845 22.1223C5.69682 22.1223 5.98297 22.0038 6.19394 21.7928C6.40492 21.5818 6.52345 21.2957 6.52345 20.9973V17.0336C8.6647 15.4286 10.4703 16.1786 13.1497 17.5023C14.6713 18.2523 16.4066 19.1148 18.2872 19.1148C19.6672 19.1148 21.1259 18.6517 22.6353 17.3448C22.7568 17.2395 22.8543 17.1094 22.9213 16.9632C22.9882 16.817 23.0231 16.6581 23.0234 16.4973V5.24733C23.0235 5.03162 22.9615 4.82045 22.8449 4.63898C22.7283 4.4575 22.562 4.31337 22.3658 4.22376C22.1696 4.13416 21.9518 4.10284 21.7382 4.13356C21.5247 4.16428 21.3246 4.25573 21.1616 4.39701C18.845 6.4042 16.9869 5.64483 14.1472 4.23951C11.51 2.92889 8.22689 1.3042 4.66157 4.39233ZM20.7734 15.9592C18.6322 17.5651 16.8266 16.8133 14.1472 15.4905C11.9759 14.4123 9.36689 13.1223 6.52345 14.4226V5.78076C8.6647 4.17576 10.4703 4.92576 13.1497 6.24951C14.6713 6.99951 16.4066 7.86201 18.2872 7.86201C19.1457 7.8633 19.9941 7.67742 20.7734 7.31733V15.9592Z" fill="black"/>
</svg>
