<svg width="25" height="25" viewBox="0 0 25 25" fill="none" xmlns="http://www.w3.org/2000/svg">
<g clip-path="url(#clip0_617_19147)">
<path d="M24.5 11.4473C24.5 11.6462 24.421 11.837 24.2803 11.9777C24.1397 12.1183 23.9489 12.1973 23.75 12.1973H1.25C1.05109 12.1973 0.860322 12.1183 0.71967 11.9777C0.579018 11.837 0.5 11.6462 0.5 11.4473C0.5 11.2484 0.579018 11.0576 0.71967 10.917C0.860322 10.7763 1.05109 10.6973 1.25 10.6973H3.8675L8.32062 4.56514C8.45557 4.37986 8.63118 4.22797 8.83397 4.12114C9.03676 4.01431 9.26134 3.95537 9.49046 3.94885C9.71958 3.94233 9.94714 3.98841 10.1557 4.08354C10.3642 4.17867 10.5482 4.32033 10.6934 4.49764L11.8981 5.89451L11.9169 5.91608C11.9867 6.00377 12.0754 6.07459 12.1763 6.12326C12.2773 6.17194 12.3879 6.19722 12.5 6.19722C12.6121 6.19722 12.7227 6.17194 12.8237 6.12326C12.9246 6.07459 13.0133 6.00377 13.0831 5.91608L13.1019 5.89451L14.3066 4.49764C14.4518 4.32033 14.6358 4.17867 14.8443 4.08354C15.0529 3.98841 15.2804 3.94233 15.5095 3.94885C15.7387 3.95537 15.9632 4.01431 16.166 4.12114C16.3688 4.22797 16.5444 4.37986 16.6794 4.56514L21.1325 10.6973H23.75C23.9489 10.6973 24.1397 10.7763 24.2803 10.917C24.421 11.0576 24.5 11.2484 24.5 11.4473ZM17.375 13.6973C16.5449 13.6975 15.7441 14.0035 15.1254 14.557C14.5068 15.1104 14.1138 15.8724 14.0216 16.6973H10.9784C10.886 15.8732 10.4933 15.1119 9.87539 14.5588C9.25745 14.0057 8.45748 13.6994 7.62815 13.6985C6.79882 13.6976 5.99819 14.0021 5.37904 14.5539C4.75989 15.1056 4.36557 15.8661 4.27133 16.69C4.17709 17.514 4.38953 18.3438 4.8681 19.0211C5.34667 19.6984 6.05788 20.1758 6.86599 20.3622C7.67411 20.5486 8.52256 20.4309 9.24944 20.0316C9.97632 19.6323 10.5307 18.9793 10.8069 18.1973H14.1931C14.3994 18.7807 14.762 19.2961 15.2414 19.6873C15.7209 20.0785 16.2986 20.3303 16.9115 20.4153C17.5243 20.5003 18.1488 20.4152 18.7166 20.1693C19.2843 19.9233 19.7736 19.5261 20.1308 19.0208C20.488 18.5156 20.6995 17.9219 20.7421 17.3047C20.7847 16.6874 20.6568 16.0703 20.3723 15.5208C20.0879 14.9713 19.6578 14.5106 19.1292 14.189C18.6006 13.8674 17.9938 13.6973 17.375 13.6973Z" fill="black"/>
</g>
<defs>
<clipPath id="clip0_617_19147">
<rect width="24" height="24" fill="white" transform="translate(0.5 0.197266)"/>
</clipPath>
</defs>
</svg>
