<svg width="25" height="25" viewBox="0 0 25 25" fill="none" xmlns="http://www.w3.org/2000/svg">
<path d="M19.3203 9.15039C19.3203 11.9132 17.0506 14.2176 14.0703 14.6873V14.7754C14.0703 15.0738 13.9518 15.3599 13.7408 15.5709C13.5298 15.7819 13.2437 15.9004 12.9453 15.9004C12.6469 15.9004 12.3608 15.7819 12.1498 15.5709C11.9388 15.3599 11.8203 15.0738 11.8203 14.7754V13.6504C11.8203 13.352 11.9388 13.0659 12.1498 12.8549C12.3608 12.6439 12.6469 12.5254 12.9453 12.5254C15.2197 12.5254 17.0703 11.0113 17.0703 9.15039C17.0703 7.28945 15.2197 5.77539 12.9453 5.77539C10.6709 5.77539 8.82031 7.28945 8.82031 9.15039C8.82031 9.44876 8.70179 9.73491 8.49081 9.94589C8.27983 10.1569 7.99368 10.2754 7.69531 10.2754C7.39694 10.2754 7.1108 10.1569 6.89982 9.94589C6.68884 9.73491 6.57031 9.44876 6.57031 9.15039C6.57031 6.04914 9.42969 3.52539 12.9453 3.52539C16.4609 3.52539 19.3203 6.04914 19.3203 9.15039ZM12.9453 17.7754C12.5745 17.7754 12.212 17.8854 11.9036 18.0914C11.5953 18.2974 11.355 18.5902 11.213 18.9329C11.0711 19.2755 11.034 19.6525 11.1063 20.0162C11.1787 20.3799 11.3573 20.714 11.6195 20.9762C11.8817 21.2384 12.2158 21.417 12.5795 21.4894C12.9432 21.5617 13.3202 21.5246 13.6628 21.3827C14.0055 21.2407 14.2983 21.0004 14.5043 20.6921C14.7103 20.3837 14.8203 20.0212 14.8203 19.6504C14.8203 19.1531 14.6228 18.6762 14.2711 18.3246C13.9195 17.9729 13.4426 17.7754 12.9453 17.7754Z" fill="black"/>
</svg>
