<svg width="25" height="25" viewBox="0 0 25 25" fill="none" xmlns="http://www.w3.org/2000/svg">
<path d="M22.792 17.4072C22.8969 17.5117 22.9801 17.6359 23.0369 17.7727C23.0937 17.9094 23.1229 18.056 23.1229 18.2041C23.1229 18.3522 23.0937 18.4988 23.0369 18.6355C22.9801 18.7723 22.8969 18.8965 22.792 19.001L20.542 21.251C20.3307 21.4623 20.044 21.5811 19.7452 21.5811C19.4463 21.5811 19.1596 21.4623 18.9483 21.251C18.7369 21.0396 18.6182 20.753 18.6182 20.4541C18.6182 20.1552 18.7369 19.8686 18.9483 19.6572L19.2773 19.3282H19.0814C17.9474 19.3269 16.83 19.0556 15.8217 18.5367C14.8133 18.0178 13.9431 17.2662 13.283 16.3441L9.37547 10.87C8.92389 10.239 8.32847 9.72465 7.63851 9.36956C6.94856 9.01448 6.18393 8.82889 5.40797 8.82816H3.24609C2.94773 8.82816 2.66158 8.70964 2.4506 8.49866C2.23962 8.28768 2.12109 8.00153 2.12109 7.70316C2.12109 7.40479 2.23962 7.11865 2.4506 6.90767C2.66158 6.69669 2.94773 6.57816 3.24609 6.57816H5.40797C6.54198 6.57941 7.65939 6.85073 8.66771 7.36964C9.67604 7.88856 10.5463 8.64015 11.2064 9.56222L15.1167 15.0363C15.5683 15.6673 16.1637 16.1817 16.8537 16.5368C17.5436 16.8918 18.3083 17.0774 19.0842 17.0782H19.2773L18.9473 16.7491C18.736 16.5378 18.6173 16.2511 18.6173 15.9522C18.6173 15.6533 18.736 15.3667 18.9473 15.1554C19.1587 14.944 19.4453 14.8253 19.7442 14.8253C20.0431 14.8253 20.3297 14.944 20.5411 15.1554L22.792 17.4072ZM13.8277 10.5991C14.0522 10.7955 14.3455 10.8946 14.6432 10.8748C14.9408 10.8549 15.2184 10.7176 15.4148 10.4932C15.8725 9.97012 16.4366 9.55097 17.0695 9.26381C17.7023 8.97664 18.3893 8.82811 19.0842 8.82816H19.2773L18.9473 9.15723C18.736 9.36857 18.6173 9.65521 18.6173 9.9541C18.6173 10.253 18.736 10.5396 18.9473 10.751C19.1587 10.9623 19.4453 11.0811 19.7442 11.0811C20.0431 11.0811 20.3297 10.9623 20.5411 10.751L22.7911 8.50098C22.896 8.39646 22.9792 8.27227 23.036 8.13552C23.0928 7.99878 23.122 7.85217 23.122 7.7041C23.122 7.55603 23.0928 7.40942 23.036 7.27268C22.9792 7.13593 22.896 7.01174 22.7911 6.90722L20.5411 4.65722C20.3297 4.44588 20.0431 4.32715 19.7442 4.32715C19.4453 4.32715 19.1587 4.44588 18.9473 4.65723C18.736 4.86857 18.6173 5.15521 18.6173 5.4541C18.6173 5.75299 18.736 6.03963 18.9473 6.25097L19.2773 6.57816H19.0814C18.0655 6.57865 17.0614 6.7964 16.1365 7.2168C15.2116 7.6372 14.3873 8.25054 13.7189 9.01566C13.524 9.24036 13.4261 9.53309 13.4465 9.82983C13.4668 10.1266 13.6039 10.4032 13.8277 10.5991ZM10.6645 15.3072C10.44 15.1108 10.1466 15.0117 9.849 15.0316C9.55136 15.0514 9.2738 15.1887 9.07734 15.4132C8.61974 15.9362 8.05559 16.3554 7.42273 16.6425C6.78987 16.9297 6.10293 17.0782 5.40797 17.0782H3.24609C2.94773 17.0782 2.66158 17.1967 2.4506 17.4077C2.23962 17.6186 2.12109 17.9048 2.12109 18.2032C2.12109 18.5015 2.23962 18.7877 2.4506 18.9987C2.66158 19.2096 2.94773 19.3282 3.24609 19.3282H5.40797C6.42392 19.3277 7.42802 19.1099 8.35291 18.6895C9.27779 18.2691 10.1021 17.6558 10.7705 16.8907C10.9657 16.6663 11.0641 16.3738 11.0443 16.0771C11.0244 15.7804 10.8879 15.5036 10.6645 15.3072Z" fill="black"/>
</svg>
